<svg width="299" height="284" viewBox="0 0 299 284" fill="none" xmlns="http://www.w3.org/2000/svg">
<path d="M0.146447 279.646C-0.0488155 279.842 -0.0488155 280.158 0.146447 280.354L3.32843 283.536C3.52369 283.731 3.84027 283.731 4.03553 283.536C4.2308 283.34 4.2308 283.024 4.03553 282.828L1.20711 280L4.03553 277.172C4.2308 276.976 4.2308 276.66 4.03553 276.464C3.84027 276.269 3.52369 276.269 3.32843 276.464L0.146447 279.646ZM200 0V38.135H201V0H200ZM200 38.135V274H201V38.135H200ZM194.5 279.5H0.5V280.5H194.5V279.5ZM200 274C200 277.038 197.538 279.5 194.5 279.5V280.5C198.09 280.5 201 277.59 201 274H200Z" fill="#8D7BF0"/>
<path d="M298.854 280.354C299.049 280.158 299.049 279.842 298.854 279.646L295.672 276.464C295.476 276.269 295.16 276.269 294.964 276.464C294.769 276.66 294.769 276.976 294.964 277.172L297.793 280L294.964 282.828C294.769 283.024 294.769 283.34 294.964 283.536C295.16 283.731 295.476 283.731 295.672 283.536L298.854 280.354ZM200 4.30557e-06L200 270L201 270L201 4.26186e-06L200 4.30557e-06ZM210.5 280.5L298.5 280.5L298.5 279.5L210.5 279.5L210.5 280.5ZM200 270C200 275.799 204.701 280.5 210.5 280.5L210.5 279.5C205.253 279.5 201 275.247 201 270L200 270Z" fill="#7B66FF"/>
</svg>
