<svg width="550" height="143" viewBox="0 0 550 143" fill="none" xmlns="http://www.w3.org/2000/svg">
<path d="M83.6981 138.473C83.478 138.639 83.4347 138.953 83.6015 139.173L86.3188 142.76C86.4856 142.98 86.7992 143.023 87.0193 142.857C87.2394 142.69 87.2827 142.376 87.1159 142.156L84.7005 138.968L87.8888 136.552C88.109 136.386 88.1522 136.072 87.9855 135.852C87.8187 135.632 87.5051 135.589 87.285 135.755L83.6981 138.473ZM271 86.3713L270.61 86.0586L271 86.3713ZM332 77.3713L332.399 77.6721L332 77.3713ZM83.9317 139.367C105.728 142.373 141.233 143.349 176.956 136.512C212.671 129.677 248.683 115.018 271.39 86.684L270.61 86.0586C248.117 114.125 212.379 128.715 176.769 135.53C141.167 142.344 105.772 141.37 84.0683 138.376L83.9317 139.367ZM271.39 86.684C285.603 68.9499 287.577 52.7301 282.104 39.2149C276.648 25.7398 263.834 15.0701 248.704 8.29C233.569 1.50714 216.037 -1.41983 201.041 0.657257C186.046 2.73417 173.494 9.83642 168.531 23.1972L169.469 23.5454C174.256 10.6561 186.391 3.69589 201.178 1.6478C215.963 -0.400111 233.306 2.48541 248.296 9.20255C263.291 15.9224 275.852 26.4403 281.177 39.5902C286.486 52.6999 284.647 68.5426 270.61 86.0586L271.39 86.684ZM168.531 23.1972C163.577 36.5347 167.601 51.7089 177.253 65.6327C186.91 79.5644 202.247 92.3208 220.096 100.885C255.795 118.012 301.709 118.424 332.399 77.6721L331.601 77.0705C301.291 117.318 255.955 116.98 220.529 99.983C202.815 91.4843 187.621 78.8344 178.075 65.063C168.524 51.2837 164.673 36.4579 169.469 23.5454L168.531 23.1972ZM332.399 77.6721C376.893 18.5906 418.001 2.47722 448.579 3.93154C463.88 4.65925 476.577 9.78483 485.785 16.169C495.014 22.5679 500.678 30.1858 502.013 35.8502L502.987 35.6208C501.572 29.6186 495.687 21.8172 486.355 15.3472C477.002 8.8626 464.125 3.6698 448.627 2.93267C417.607 1.45733 376.215 17.8285 331.601 77.0705L332.399 77.6721Z" fill="#D8D1FF"/>
</svg>
