<svg width="130" height="9" viewBox="0 0 130 9" fill="none" xmlns="http://www.w3.org/2000/svg">
<path d="M0.50003 0.5C3.48244 4.59716 9.44302 8.92719 14.2065 7.64405C18.1726 6.57573 22.1334 3.42763 25.6147 0.95926C26.8182 0.105895 31.6425 5.08542 32.9903 5.75598C35.6008 7.05468 37.2084 5.65901 39.7182 4.1996C40.3125 3.85399 40.8045 2.7963 41.4942 2.7963C43.2535 2.7963 45.0719 4.11816 46.7595 4.63334C51.9455 6.21655 57.7244 5.98247 62.8479 4.27614C65.9103 3.25625 68.2665 1.80244 71.4563 2.6177C75.3775 3.6199 78.6709 5.27848 81.9451 2.10741C86.4003 -2.20734 90.2847 3.82278 94.6278 5.24569C97.7281 6.2614 99.4613 1.10668 102.776 1.44404C104.225 1.59142 105.099 2.85973 106.266 3.71482C107.376 4.52797 108.059 3.0493 108.898 2.4391C111.506 0.543587 112.432 4.27882 114.456 5.44981C115.821 6.23928 116.987 3.43469 117.841 5.78149C119.208 9.53716 127.458 8.30743 129.5 8.30743" stroke="#7B66FF" stroke-linecap="round"/>
</svg>
