<svg width="525" height="51" viewBox="0 0 525 51" fill="none" xmlns="http://www.w3.org/2000/svg">
<path d="M4.81851 39.2206C3.36175 39.2206 2.18513 38.791 1.28866 37.9319C0.429545 37.0354 -1.37163e-05 35.8775 -1.37163e-05 34.4581V9.54174e-06H28.7431V5.65898H6.55542V16.3046H27.0622V22.0196H6.55542V33.5616H28.7431V39.2206H4.81851ZM41.6937 24.9891L31.4964 11.2619H38.6681L45.3917 20.2826L52.1152 11.2619H59.2869L49.0896 24.9891L59.6791 39.2206H52.4514L45.3917 29.6956L38.332 39.2206H31.1042L41.6937 24.9891ZM63.4655 11.2619H69.4606V14.5676C70.2451 13.4471 71.2536 12.5506 72.4862 11.8782C73.7562 11.1685 74.9889 10.8137 76.1842 10.8137H79.8821C83.1318 10.8137 85.7465 11.8035 87.7262 13.7832C89.7433 15.7256 90.7518 18.3029 90.7518 21.5153V28.0147C90.7518 31.5259 89.7619 34.346 87.7822 36.4751C85.8025 38.6042 83.1692 39.6688 79.8821 39.6688H76.1281C75.0449 39.6688 73.9243 39.4073 72.7664 38.8844C71.6084 38.3241 70.6559 37.5957 69.9089 36.6992V50.4264H63.4655V11.2619ZM79.2098 34.1219C80.7412 34.1219 81.9739 33.5242 82.9077 32.329C83.8789 31.1337 84.3645 29.5648 84.3645 27.6225V21.9075C84.3645 20.264 83.8975 18.9379 82.9637 17.9294C82.0299 16.8835 80.7972 16.3606 79.2658 16.3606H75.6799C74.4099 16.3606 73.2333 16.8648 72.15 17.8734C71.1042 18.8446 70.3571 20.1146 69.9089 21.6834V28.1828C70.0956 29.9384 70.712 31.3765 71.7578 32.497C72.8411 33.5803 74.1298 34.1219 75.6239 34.1219H79.2098ZM105.808 39.2206C102.671 39.2206 100.374 38.5669 98.9168 37.2595C97.4974 35.9148 96.7876 33.8044 96.7876 30.9282V9.54174e-06H103.231V30.6481C103.231 31.7313 103.455 32.5157 103.903 33.0013C104.352 33.4495 105.099 33.6737 106.145 33.6737H108.834V39.2206H105.808ZM123.184 39.6688C119.747 39.6688 116.983 38.679 114.891 36.6992C112.799 34.6822 111.754 32.0301 111.754 28.7431V21.7954C111.754 19.629 112.221 17.724 113.154 16.0804C114.126 14.3996 115.47 13.1109 117.188 12.2144C118.944 11.2806 120.961 10.8137 123.24 10.8137H128.17C130.449 10.8137 132.447 11.2806 134.165 12.2144C135.921 13.1109 137.266 14.3996 138.199 16.0804C139.171 17.724 139.656 19.629 139.656 21.7954V28.7431C139.656 32.0301 138.592 34.6822 136.463 36.6992C134.371 38.679 131.569 39.6688 128.058 39.6688H123.184ZM128.002 34.1219C129.571 34.1219 130.822 33.599 131.756 32.5531C132.727 31.4698 133.213 30.0691 133.213 28.3509V22.1316C133.213 20.4134 132.746 19.0313 131.812 17.9854C130.878 16.9022 129.627 16.3606 128.058 16.3606H123.352C121.783 16.3606 120.532 16.9022 119.598 17.9854C118.664 19.0313 118.197 20.4134 118.197 22.1316V28.3509C118.197 30.0691 118.664 31.4698 119.598 32.5531C120.532 33.599 121.746 34.1219 123.24 34.1219H128.002ZM145.704 11.2619H151.699V15.0719C152.446 13.914 153.511 12.9801 154.893 12.2704C156.312 11.5234 157.769 11.1499 159.263 11.1499H162.625V16.7528H159.263C157.134 16.7528 155.416 17.4065 154.108 18.7138C152.801 20.0212 152.147 21.7207 152.147 23.8125V39.2206H145.704V11.2619ZM176.15 39.6688C173.872 39.6688 171.855 39.2392 170.099 38.3801C168.381 37.521 167.036 36.307 166.065 34.7382C165.131 33.1694 164.664 31.3578 164.664 29.3034V21.7954C164.664 19.629 165.131 17.724 166.065 16.0804C167.036 14.3996 168.381 13.1109 170.099 12.2144C171.855 11.2806 173.872 10.8137 176.15 10.8137H180.633C184.032 10.8137 186.758 11.8035 188.813 13.7832C190.867 15.7629 191.894 18.3963 191.894 21.6834V27.2863H171.108V29.3034C171.108 30.7975 171.556 31.9928 172.452 32.8892C173.386 33.7857 174.619 34.234 176.15 34.234H180.464C181.959 34.234 183.154 33.8791 184.05 33.1694C184.984 32.4223 185.451 31.4512 185.451 30.2559H191.782C191.782 33.0947 190.736 35.3732 188.645 37.0915C186.553 38.8097 183.808 39.6688 180.408 39.6688H176.15ZM185.563 22.4678V21.6834C185.563 20.0398 185.115 18.7138 184.218 17.7053C183.322 16.6968 182.145 16.1925 180.689 16.1925H176.15C174.619 16.1925 173.367 16.7341 172.396 17.8173C171.462 18.8632 170.995 20.2453 170.995 21.9635V22.4678H185.563ZM225.996 39.6688C224.8 39.6688 223.568 39.2953 222.298 38.5482C221.065 37.7638 220.075 36.7926 219.328 35.6347V39.2206H213.333V9.54174e-06H219.776V13.8393C220.524 12.9054 221.476 12.1771 222.634 11.6541C223.792 11.0938 224.95 10.8137 226.108 10.8137H230.03C232.084 10.8137 233.915 11.2806 235.521 12.2144C237.127 13.1109 238.378 14.3809 239.275 16.0244C240.171 17.6679 240.619 19.5543 240.619 21.6834V28.3509C240.619 30.592 240.171 32.5717 239.275 34.29C238.378 36.0082 237.108 37.3342 235.465 38.2681C233.859 39.2019 232.01 39.6688 229.918 39.6688H225.996ZM229.245 34.0098C230.702 34.0098 231.898 33.4682 232.831 32.385C233.765 31.2644 234.232 29.8076 234.232 28.0147V22.0756C234.232 20.3947 233.784 19.05 232.887 18.0415C231.991 16.9956 230.833 16.4726 229.414 16.4726H225.828C224.184 16.4726 222.802 17.0703 221.681 18.2656C220.561 19.4235 219.926 20.955 219.776 22.86V28.3509C219.963 29.9944 220.598 31.3578 221.681 32.441C222.802 33.4869 224.091 34.0098 225.548 34.0098H229.245ZM256.909 50.5945C254.07 50.5945 251.717 49.8101 249.849 48.2413C248.019 46.6725 247.01 44.5994 246.823 42.022H253.155C253.267 42.9559 253.659 43.7029 254.331 44.2632C255.004 44.8235 255.863 45.1037 256.909 45.1037H261.447C262.866 45.1037 263.987 44.562 264.809 43.4788C265.668 42.4329 266.097 41.0135 266.097 39.2206V35.0744C265.201 36.307 264.155 37.2782 262.96 37.9879C261.802 38.6976 260.625 39.0525 259.43 39.0525H255.788C252.949 39.0525 250.652 38.1187 248.896 36.251C247.178 34.346 246.319 31.8434 246.319 28.7431V11.2619H252.762V28.8551C252.762 30.2745 253.099 31.4138 253.771 32.2729C254.481 33.132 255.415 33.5616 256.572 33.5616H259.878C261.26 33.5616 262.53 32.9826 263.688 31.8247C264.883 30.6668 265.687 29.1913 266.097 27.3984V11.2619H272.485V39.2206C272.485 42.6944 271.476 45.4585 269.459 47.5129C267.48 49.5673 264.809 50.5945 261.447 50.5945H256.909Z" fill="#0B2B82"/>
<path d="M305.551 39.6688C302.115 39.6688 299.351 38.679 297.259 36.6992C295.205 34.7195 294.177 32.1048 294.177 28.8551V21.7954C294.177 19.629 294.644 17.724 295.578 16.0804C296.512 14.3996 297.838 13.1109 299.556 12.2144C301.274 11.2806 303.254 10.8137 305.495 10.8137H309.978C313.19 10.8137 315.767 11.7475 317.71 13.6151C319.689 15.4454 320.679 17.8734 320.679 20.899H314.348C314.348 19.5543 313.937 18.471 313.115 17.6493C312.331 16.7901 311.285 16.3606 309.978 16.3606H305.551C304.095 16.3606 302.899 16.9022 301.965 17.9854C301.069 19.0687 300.621 20.4694 300.621 22.1876V28.4629C300.621 30.1438 301.069 31.5072 301.965 32.5531C302.899 33.599 304.113 34.1219 305.607 34.1219H310.034C311.416 34.1219 312.518 33.6176 313.339 32.6091C314.199 31.6006 314.628 30.2932 314.628 28.687H320.959C320.959 31.9741 319.951 34.6262 317.934 36.6432C315.954 38.6603 313.321 39.6688 310.034 39.6688H305.551ZM334.785 39.6688C331.946 39.6688 329.649 38.9591 327.893 37.5397C326.175 36.0829 325.316 34.1592 325.316 31.7687V29.7516C325.316 27.3984 326.213 25.512 328.006 24.0926C329.836 22.6732 332.226 21.9635 335.177 21.9635H338.651C339.697 21.9635 340.818 22.1129 342.013 22.4118C343.208 22.7106 344.273 23.1028 345.207 23.5884V20.1146C345.207 18.9566 344.833 18.0228 344.086 17.3131C343.339 16.6034 342.368 16.2485 341.172 16.2485H336.466C335.233 16.2485 334.243 16.5473 333.496 17.145C332.749 17.7053 332.376 18.4523 332.376 19.3862H326.101C326.101 16.8088 327.053 14.7357 328.958 13.1669C330.863 11.5981 333.366 10.8137 336.466 10.8137H341.172C344.31 10.8137 346.831 11.6728 348.736 13.391C350.641 15.0719 351.594 17.3131 351.594 20.1146V39.2206H345.599V35.6907C344.702 36.886 343.582 37.8572 342.237 38.6042C340.892 39.3139 339.566 39.6688 338.259 39.6688H334.785ZM338.651 34.6262C340.145 34.6262 341.49 34.2153 342.685 33.3935C343.881 32.5344 344.721 31.4138 345.207 30.0318V28.687C344.572 28.1641 343.675 27.7532 342.517 27.4544C341.359 27.1182 340.145 26.9501 338.875 26.9501H335.345C334.225 26.9501 333.31 27.2303 332.6 27.7906C331.928 28.3509 331.591 29.0793 331.591 29.9757V31.5445C331.591 32.4784 331.946 33.2254 332.656 33.7857C333.366 34.346 334.299 34.6262 335.457 34.6262H338.651ZM370.263 39.2206C367.088 39.2206 364.772 38.5109 363.315 37.0915C361.858 35.672 361.13 33.4309 361.13 30.3679V16.8088H356.199V11.2619H361.298V2.80148H367.573V11.2619H374.857V16.8088H367.573V30.1438C367.573 31.3765 367.816 32.2729 368.302 32.8332C368.787 33.3935 369.553 33.6737 370.599 33.6737H374.857V39.2206H370.263ZM390.419 39.6688C388.14 39.6688 386.123 39.2392 384.368 38.3801C382.649 37.521 381.305 36.307 380.333 34.7382C379.4 33.1694 378.933 31.3578 378.933 29.3034V21.7954C378.933 19.629 379.4 17.724 380.333 16.0804C381.305 14.3996 382.649 13.1109 384.368 12.2144C386.123 11.2806 388.14 10.8137 390.419 10.8137H394.901C398.3 10.8137 401.027 11.8035 403.081 13.7832C405.136 15.7629 406.163 18.3963 406.163 21.6834V27.2863H385.376V29.3034C385.376 30.7975 385.824 31.9928 386.721 32.8892C387.655 33.7857 388.887 34.234 390.419 34.234H394.733C396.227 34.234 397.422 33.8791 398.319 33.1694C399.253 32.4223 399.72 31.4512 399.72 30.2559H406.051C406.051 33.0947 405.005 35.3732 402.913 37.0915C400.822 38.8097 398.076 39.6688 394.677 39.6688H390.419ZM399.832 22.4678V21.6834C399.832 20.0398 399.383 18.7138 398.487 17.7053C397.59 16.6968 396.414 16.1925 394.957 16.1925H390.419C388.887 16.1925 387.636 16.7341 386.665 17.8173C385.731 18.8632 385.264 20.2453 385.264 21.9635V22.4678H399.832ZM422.206 50.5945C419.405 50.5945 417.07 49.8101 415.203 48.2413C413.335 46.6725 412.308 44.5994 412.121 42.022H418.452C418.564 42.9559 418.956 43.7029 419.629 44.2632C420.339 44.8235 421.198 45.1037 422.206 45.1037H427.137C428.556 45.1037 429.677 44.562 430.499 43.4788C431.358 42.4329 431.787 41.0135 431.787 39.2206V36.0269C431.003 36.9234 430.032 37.6517 428.874 38.212C427.753 38.7723 426.651 39.0525 425.568 39.0525H421.646C418.434 39.0525 415.819 38.0626 413.802 36.0829C411.822 34.0659 410.832 31.4325 410.832 28.1828V22.1876C410.832 19.9465 411.299 17.9668 412.233 16.2485C413.167 14.5303 414.474 13.2043 416.155 12.2704C417.873 11.2993 419.834 10.8137 422.038 10.8137H425.512C426.782 10.8137 428.033 11.1312 429.266 11.7662C430.499 12.3638 431.47 13.1669 432.179 14.1754V11.2619H438.231V39.2206C438.231 42.6944 437.222 45.4585 435.205 47.5129C433.225 49.5673 430.536 50.5945 427.137 50.5945H422.206ZM425.904 33.5616C427.51 33.5616 428.855 32.9266 429.938 31.6566C431.021 30.3866 431.638 28.7431 431.787 26.726V21.8515C431.638 20.2453 431.059 18.9379 430.05 17.9294C429.042 16.8835 427.828 16.3606 426.408 16.3606H422.542C420.974 16.3606 419.704 16.9396 418.732 18.0975C417.761 19.2181 417.276 20.7122 417.276 22.5798V27.7906C417.276 29.5088 417.705 30.9095 418.564 31.9928C419.461 33.0387 420.619 33.5616 422.038 33.5616H425.904ZM455.694 39.6688C452.257 39.6688 449.493 38.679 447.401 36.6992C445.31 34.6822 444.264 32.0301 444.264 28.7431V21.7954C444.264 19.629 444.731 17.724 445.665 16.0804C446.636 14.3996 447.98 13.1109 449.699 12.2144C451.454 11.2806 453.471 10.8137 455.75 10.8137H460.68C462.959 10.8137 464.957 11.2806 466.676 12.2144C468.431 13.1109 469.776 14.3996 470.71 16.0804C471.681 17.724 472.166 19.629 472.166 21.7954V28.7431C472.166 32.0301 471.102 34.6822 468.973 36.6992C466.881 38.679 464.08 39.6688 460.568 39.6688H455.694ZM460.512 34.1219C462.081 34.1219 463.332 33.599 464.266 32.5531C465.237 31.4698 465.723 30.0691 465.723 28.3509V22.1316C465.723 20.4134 465.256 19.0313 464.322 17.9854C463.389 16.9022 462.137 16.3606 460.568 16.3606H455.862C454.293 16.3606 453.042 16.9022 452.108 17.9854C451.174 19.0313 450.707 20.4134 450.707 22.1316V28.3509C450.707 30.0691 451.174 31.4698 452.108 32.5531C453.042 33.599 454.256 34.1219 455.75 34.1219H460.512ZM478.214 11.2619H484.209V15.0719C484.956 13.914 486.021 12.9801 487.403 12.2704C488.822 11.5234 490.279 11.1499 491.773 11.1499H495.135V16.7528H491.773C489.644 16.7528 487.926 17.4065 486.619 18.7138C485.311 20.0212 484.657 21.7207 484.657 23.8125V39.2206H478.214V11.2619ZM509.424 50.5945C506.585 50.5945 504.232 49.8101 502.364 48.2413C500.534 46.6725 499.525 44.5994 499.338 42.022H505.67C505.782 42.9559 506.174 43.7029 506.846 44.2632C507.519 44.8235 508.378 45.1037 509.424 45.1037H513.962C515.382 45.1037 516.502 44.562 517.324 43.4788C518.183 42.4329 518.613 41.0135 518.613 39.2206V35.0744C517.716 36.307 516.67 37.2782 515.475 37.9879C514.317 38.6976 513.14 39.0525 511.945 39.0525H508.303C505.464 39.0525 503.167 38.1187 501.412 36.251C499.693 34.346 498.834 31.8434 498.834 28.7431V11.2619H505.278V28.8551C505.278 30.2745 505.614 31.4138 506.286 32.2729C506.996 33.132 507.93 33.5616 509.088 33.5616H512.393C513.775 33.5616 515.045 32.9826 516.203 31.8247C517.399 30.6668 518.202 29.1913 518.613 27.3984V11.2619H525V39.2206C525 42.6944 523.991 45.4585 521.974 47.5129C519.995 49.5673 517.324 50.5945 513.962 50.5945H509.424Z" fill="#7B66FF"/>
</svg>
