<svg width="30" height="30" viewBox="0 0 30 30" fill="none" xmlns="http://www.w3.org/2000/svg">
<path d="M21.6801 22.0167V22.0162H21.6834V17.1751C21.6834 14.8068 21.1735 12.9824 18.4048 12.9824C17.0738 12.9824 16.1806 13.7128 15.816 14.4053H15.7775V13.2035H13.1523V22.0162H15.8858V17.6525C15.8858 16.5035 16.1036 15.3925 17.5265 15.3925C18.9284 15.3925 18.9493 16.7037 18.9493 17.7262V22.0167H21.6801Z" fill="#7B66FF"/>
<path d="M8.61719 13.2041H11.354V22.0168H8.61719V13.2041Z" fill="#7B66FF"/>
<path d="M9.98354 8.59766C9.10849 8.59766 8.39844 9.30771 8.39844 10.1828C8.39844 11.0578 9.10849 11.7827 9.98354 11.7827C10.8586 11.7827 11.5686 11.0578 11.5686 10.1828C11.5681 9.30771 10.858 8.59766 9.98354 8.59766V8.59766Z" fill="#7B66FF"/>
</svg>
