<svg width="294" height="44" viewBox="0 0 294 44" fill="none" xmlns="http://www.w3.org/2000/svg">
<g clip-path="url(#clip0_1_12)">
<path d="M91.4381 44.0498H88.8832C80.3834 44.0498 72.2275 40.7317 66.2334 34.8648L65.349 33.9992L58.8636 27.6514L53.1152 22.0249L45.3523 14.4268C45.2049 14.2344 45.0084 14.0902 44.861 13.9459C42.8466 12.0704 40.0952 10.9644 37.0982 10.9644C30.8584 10.9644 25.7978 15.9176 25.7978 22.073H25.7487L25.7978 22.1211C25.7978 27.1224 29.2371 31.3543 33.9046 32.7008C36.3121 33.4221 38.5721 34.5762 40.3409 36.3555L46.335 42.2225L48.3003 44.146H37.0982C32.8728 44.146 28.9423 42.9919 25.5522 41.0202C18.9685 37.125 14.5957 30.0558 14.5957 22.0249C14.5957 18.8029 15.2836 15.7733 16.561 13.0322C19.3124 7.02105 24.7169 2.45256 31.3497 0.72134C33.1676 0.240447 35.1329 0 37.0982 0C43.1414 0 48.595 2.30829 52.6239 6.05926L53.41 6.82869L64.7103 17.8892L91.4381 44.0498Z" fill="#7B66FF"/>
<path d="M114.972 40.9722H100.331C99.6924 40.9722 99.1028 40.7318 98.7097 40.299L80.4327 22.4097C80.2853 22.2655 80.3835 22.025 80.5801 22.025H85.0019C92.0278 22.025 98.7589 24.7661 103.721 29.6231L115.071 40.7318C115.169 40.828 115.071 40.9722 114.972 40.9722Z" fill="#7B66FF"/>
<path d="M16.0696 44.0498H11.9917C10.3212 44.0498 8.79812 43.088 8.11027 41.5973C8.01201 41.3568 7.91375 41.1645 7.81548 40.924C6.145 37.2692 5.26062 33.2297 5.26062 28.9498C5.26062 26.5934 5.55541 24.2851 6.09586 22.073C6.19413 21.7364 6.24326 21.3997 6.39065 21.0631C6.39065 21.3997 6.39065 21.7364 6.39065 22.073C6.39065 29.2383 8.94552 35.8265 13.22 40.9721C14.0552 42.0782 15.0379 43.088 16.0696 44.0498Z" fill="#7B66FF"/>
<path d="M144.411 5.28003C148.177 5.28003 150.33 6.8074 151.836 6.8074C152.697 6.8074 153.289 6.43872 153.881 6.43872C154.903 6.43872 154.904 7.54475 155.549 10.2308C156.034 12.4955 156.356 13.1802 156.356 13.6542C156.356 14.2336 155.98 14.6023 155.495 14.6023C154.634 14.6023 154.204 13.6542 153.504 12.7062C151.352 9.65147 147.962 7.49208 144.249 7.49208C138.007 7.49208 134.133 13.3909 134.133 20.3957C134.133 28.1379 138.599 33.984 145.648 33.984C151.244 33.984 154.473 30.35 155.872 27.0845C156.087 26.6105 156.41 26.0839 156.787 26.0839C157.217 26.0839 157.379 26.7159 157.379 27.1899C157.379 28.0852 157.056 29.5073 156.141 30.9293C154.419 33.826 150.599 37.1441 144.464 37.1441C135.478 37.1441 130.043 30.1393 130.043 21.6071C130.151 12.8115 135.478 5.28003 144.411 5.28003Z" fill="#F1EFFF"/>
<path d="M182.32 24.7145C180.168 30.1393 178.715 34.142 178.231 35.1427C177.8 35.8801 177.101 36.4594 176.24 36.4594C175.809 36.4594 175.433 36.0381 175.217 35.6167C174.733 34.6687 167.63 17.341 166.339 14.2862C166.124 13.7596 165.962 13.4962 165.855 13.4962C165.693 13.4962 165.586 13.8649 165.586 14.3916C165.478 15.8136 165.047 28.5066 165.047 30.2973C165.047 31.5613 165.209 32.72 165.478 33.1414C166.339 34.4581 167.523 34.3527 167.523 35.4061C167.523 35.9854 167.146 36.4068 166.177 36.4068C165.155 36.4068 164.079 36.3014 163.487 36.3014C162.734 36.3014 161.604 36.4068 160.527 36.4068C159.72 36.4068 159.236 36.0381 159.236 35.4587C159.236 34.2474 161.335 34.3527 161.657 32.0353C162.142 28.0852 162.518 16.393 162.518 13.1275C162.518 11.5475 162.518 11.0735 162.465 10.5468C162.249 7.91342 160.097 8.22943 160.097 6.86007C160.097 6.28072 160.366 5.85938 161.388 5.85938C161.98 5.85938 163.379 5.96471 164.24 5.96471C166.177 5.96471 166.931 6.07005 167.523 6.43872C168.168 6.86007 168.706 7.70275 169.029 8.2821C169.567 9.23012 176.455 25.6625 177.477 27.9272C177.585 28.0852 177.639 28.2432 177.8 28.2432C177.854 28.2432 177.962 28.1906 178.069 27.9799C178.338 27.2425 183.504 13.9176 186.087 8.22943C186.518 7.33408 186.948 6.8074 187.486 6.49139C188.024 6.17538 188.831 6.01738 190.553 6.01738C191.091 6.01738 192.706 5.91204 193.298 5.91204C194.105 5.91204 194.428 6.38605 194.428 6.91273C194.428 8.1241 192.598 8.07143 192.114 10.4942C191.952 11.1262 191.952 12.1269 191.952 12.7589C191.952 18.5523 192.652 29.8233 192.975 31.8247C193.351 34.4581 195.396 34.1947 195.396 35.4061C195.396 35.9854 194.966 36.3541 193.997 36.3541C192.921 36.3541 191.091 36.2488 190.338 36.2488C189.154 36.2488 188.132 36.3541 187.056 36.3541C186.141 36.3541 185.603 36.0381 185.603 35.4587C185.603 34.3 187.54 34.4581 187.97 32.4567C188.024 32.1933 188.078 31.7193 188.078 31.14C188.078 29.1386 187.809 21.6597 187.378 15.1816C187.325 14.4969 187.217 14.1809 187.109 14.1809C186.679 14.1809 185.818 15.8136 182.32 24.7145Z" fill="#F1EFFF"/>
<path d="M207.665 13.4962C213.745 13.4962 219.234 17.9203 219.234 25.6625C219.234 33.036 214.176 36.7228 207.988 36.7228C200.992 36.7228 196.58 31.93 196.58 25.2938C196.58 18.289 201.208 13.4962 207.665 13.4962ZM201.315 23.8718C201.315 25.7152 201.584 28.1379 202.607 30.1393C204.113 32.9833 206.535 33.984 208.633 33.984C211.808 33.984 214.66 31.772 214.66 26.7159C214.66 24.2931 214.068 21.7124 213.046 19.869C211.593 17.2356 209.387 15.9716 207.234 15.9716C203.952 15.9189 201.315 18.6577 201.315 23.8718Z" fill="#F1EFFF"/>
<path d="M242.157 31.1927C242.157 32.1934 242.533 33.1941 243.502 33.1941C244.148 33.1941 244.363 32.9834 244.686 32.9834C244.847 32.9834 245.063 33.1414 245.063 33.6681C245.063 35.1955 243.502 36.5648 241.565 36.5648C239.09 36.5648 238.229 35.0375 237.798 33.9841C237.744 33.8261 237.637 33.5628 237.368 33.5628C237.206 33.5628 236.991 33.8261 236.776 34.0368C236.023 34.7215 234.085 36.6175 230.103 36.6175C224.615 36.6175 222.462 32.6147 222.462 27.98C222.462 24.5039 222.893 20.4484 222.893 19.2898C222.893 18.0257 222.624 17.6044 222.086 17.0777C221.494 16.551 220.364 16.3403 220.364 15.4977C220.364 14.813 220.902 14.497 221.924 14.339C224.991 13.9703 226.014 13.549 226.929 13.549C227.79 13.549 228.112 14.1283 228.112 14.7076C228.112 16.3403 226.982 19.2898 226.982 26.5579C226.982 30.2447 228.059 33.5628 231.987 33.5628C235.377 33.5628 237.798 31.3507 237.798 26.8213V19.7111C237.798 18.3417 237.529 17.5517 236.453 16.9197C235.915 16.551 235.215 16.235 235.215 15.5503C235.215 14.8656 235.7 14.5496 236.561 14.4443C238.928 14.181 240.758 13.6016 241.565 13.6016C242.264 13.6016 242.641 14.0756 242.641 14.7603C242.641 15.9717 242.103 17.025 242.103 20.8698V31.1927H242.157Z" fill="#F1EFFF"/>
<path d="M262.658 15.445C263.465 16.2877 263.734 17.2884 263.734 19.0264C263.734 20.1851 263.412 20.7118 262.766 20.7118C262.013 20.7118 261.582 19.8691 260.99 19.0264C259.968 17.6044 258.246 15.7083 255.233 15.7083C252.757 15.7083 251.358 17.0777 251.358 18.8157C251.358 21.1331 253.618 21.8705 257.008 22.8712C261.098 24.0825 264.811 25.3466 264.811 29.9287C264.811 34.3528 260.775 36.7755 255.878 36.7755C253.08 36.7755 249.044 35.8801 247.538 33.6154C246.946 32.8254 246.677 31.6667 246.677 30.35C246.677 29.086 247.053 28.5066 247.699 28.5066C248.183 28.5066 248.56 29.0333 248.991 29.7707C250.121 31.614 252.219 34.1948 256.309 34.1948C258.838 34.1948 260.344 32.8781 260.344 30.824C260.344 28.296 257.869 27.6639 254.264 26.4526C250.982 25.3466 247.376 24.1352 247.376 19.9744C247.376 15.7083 251.52 13.4436 255.878 13.4436C258.084 13.4436 261.205 13.9703 262.658 15.445Z" fill="#F1EFFF"/>
<path d="M271.967 26.4526C271.537 26.4526 271.376 26.5579 271.376 26.8739C271.376 28.9807 273.259 33.2994 278.425 33.2994C282.138 33.2994 284.344 31.456 285.528 29.1913C285.743 28.8226 286.066 28.5066 286.335 28.5066C286.658 28.5066 286.873 28.8226 286.873 29.56C286.873 32.0881 283.806 36.7755 277.295 36.7755C270.784 36.7755 266.479 32.1407 266.479 25.6626C266.479 19.1317 270.999 13.549 277.833 13.549C283.16 13.549 286.496 17.183 286.496 21.6071C286.496 22.8712 285.904 23.6085 285.043 24.1352C282.299 25.7679 275.734 26.2946 271.967 26.4526ZM277.456 15.919C273.797 15.919 271.053 19.5004 271.053 23.2398C271.053 23.8192 271.214 24.1352 271.698 24.1352C273.689 24.1352 279.286 23.6085 281.384 22.4498C281.976 22.0812 282.299 21.6598 282.299 20.9751C282.245 18.0784 280.2 15.919 277.456 15.919Z" fill="#F1EFFF"/>
</g>
<defs>
<clipPath id="clip0_1_12">
<rect width="294" height="44" fill="white"/>
</clipPath>
</defs>
</svg>
