<svg width="16" height="16" viewBox="0 0 16 16" fill="none" xmlns="http://www.w3.org/2000/svg">
<mask id="mask0_1_40" style="mask-type:alpha" maskUnits="userSpaceOnUse" x="0" y="0" width="16" height="16">
<rect width="16" height="16" fill="#C4C4C4"/>
</mask>
<g mask="url(#mask0_1_40)">
<path d="M16 3.03929C15.405 3.30029 14.771 3.47329 14.11 3.55729C14.79 3.15129 15.309 2.51329 15.553 1.74429C14.919 2.12229 14.219 2.38929 13.473 2.53829C12.871 1.89729 12.013 1.50029 11.077 1.50029C9.261 1.50029 7.799 2.97429 7.799 4.78129C7.799 5.04129 7.821 5.29129 7.875 5.52929C5.148 5.39629 2.735 4.08929 1.114 2.09829C0.831 2.58929 0.665 3.15129 0.665 3.75629C0.665 4.89229 1.25 5.89929 2.122 6.48229C1.595 6.47229 1.078 6.31929 0.64 6.07829C0.64 6.08829 0.64 6.10129 0.64 6.11429C0.64 7.70829 1.777 9.03229 3.268 9.33729C3.001 9.41029 2.71 9.44529 2.408 9.44529C2.198 9.44529 1.986 9.43329 1.787 9.38929C2.212 10.6883 3.418 11.6433 4.852 11.6743C3.736 12.5473 2.319 13.0733 0.785 13.0733C0.516 13.0733 0.258 13.0613 0 13.0283C1.453 13.9653 3.175 14.5003 5.032 14.5003C11.068 14.5003 14.368 9.50029 14.368 5.16629C14.368 5.02129 14.363 4.88129 14.356 4.74229C15.007 4.28029 15.554 3.70329 16 3.03929Z" fill="#7B66FF"/>
</g>
</svg>
